<mxfile host="app.diagrams.net" modified="2023-11-07T21:11:58.456Z" agent="Mozilla/5.0 (Windows NT 10.0; Win64; x64) AppleWebKit/537.36 (KHTML, like Gecko) Chrome/119.0.0.0 Safari/537.36 Edg/119.0.0.0" etag="9DU-IecdcvCA2itjBec9" version="22.0.8" type="github">
  <diagram id="C5RBs43oDa-KdzZeNtuy" name="Page-1">
    <mxGraphModel dx="1426" dy="751" grid="1" gridSize="10" guides="1" tooltips="1" connect="1" arrows="1" fold="1" page="1" pageScale="1" pageWidth="827" pageHeight="1169" math="0" shadow="0">
      <root>
        <mxCell id="WIyWlLk6GJQsqaUBKTNV-0" />
        <mxCell id="WIyWlLk6GJQsqaUBKTNV-1" parent="WIyWlLk6GJQsqaUBKTNV-0" />
        <mxCell id="R5TnPBdX01yJMk_6wlhe-2" value="" style="edgeStyle=orthogonalEdgeStyle;rounded=0;orthogonalLoop=1;jettySize=auto;html=1;" edge="1" parent="WIyWlLk6GJQsqaUBKTNV-1" source="R5TnPBdX01yJMk_6wlhe-0" target="R5TnPBdX01yJMk_6wlhe-1">
          <mxGeometry relative="1" as="geometry" />
        </mxCell>
        <mxCell id="R5TnPBdX01yJMk_6wlhe-0" value="start" style="strokeWidth=2;html=1;shape=mxgraph.flowchart.terminator;whiteSpace=wrap;" vertex="1" parent="WIyWlLk6GJQsqaUBKTNV-1">
          <mxGeometry x="364" y="90" width="100" height="60" as="geometry" />
        </mxCell>
        <mxCell id="R5TnPBdX01yJMk_6wlhe-4" value="" style="edgeStyle=orthogonalEdgeStyle;rounded=0;orthogonalLoop=1;jettySize=auto;html=1;" edge="1" parent="WIyWlLk6GJQsqaUBKTNV-1" source="R5TnPBdX01yJMk_6wlhe-1" target="R5TnPBdX01yJMk_6wlhe-3">
          <mxGeometry relative="1" as="geometry" />
        </mxCell>
        <mxCell id="R5TnPBdX01yJMk_6wlhe-1" value="OPEN&amp;nbsp;&amp;nbsp;output file &quot;employeeAbsences.txt&quot;" style="rounded=1;whiteSpace=wrap;html=1;absoluteArcSize=1;arcSize=14;strokeWidth=2;" vertex="1" parent="WIyWlLk6GJQsqaUBKTNV-1">
          <mxGeometry x="346" y="180" width="136" height="100" as="geometry" />
        </mxCell>
        <mxCell id="R5TnPBdX01yJMk_6wlhe-3" value="OUTPUT &lt;br&gt;&quot;EMPLOYEE ABSENCE REPORT&quot; &lt;br&gt;to output file" style="shape=parallelogram;html=1;strokeWidth=2;perimeter=parallelogramPerimeter;whiteSpace=wrap;rounded=1;arcSize=12;size=0.23;" vertex="1" parent="WIyWlLk6GJQsqaUBKTNV-1">
          <mxGeometry x="286" y="320" width="256" height="90" as="geometry" />
        </mxCell>
      </root>
    </mxGraphModel>
  </diagram>
</mxfile>
